<?xml version="1.0" encoding="UTF-8"?>
<svg xmlns="http://www.w3.org/2000/svg" viewBox="0 0 24 24" width="24" height="24">
<mask id="kb"><rect x="0" y="0" width="24" height="24" fill="white"/><circle cx="17.6" cy="17.6" r="6.1" fill="black"/></mask>
<g mask="url(#kb)"><g transform="scale(0.82)"><g transform="scale(1.5000)"><rect x="2" y="2" width="12" height="12" rx="1" fill="none" stroke="#d4d4d4" stroke-width="1.2"/>
  <circle cx="5.5" cy="5.5" r="1.5" fill="#d4d4d4"/>
  <polyline points="2,12 6,8 9,11 11,9 14,12" fill="none" stroke="#d4d4d4" stroke-width="1" stroke-linejoin="round"/></g></g></g>
<circle cx="17.6" cy="17.6" r="4.5" stroke="#d4d4d4" stroke-width="1.5" stroke-linecap="round" stroke-linejoin="round" fill="none"/>
<circle cx="17.6" cy="17.6" r="1.1" stroke="#d4d4d4" stroke-width="1.5" stroke-linecap="round" stroke-linejoin="round" fill="none"/><path d="M17.6 15.1v1M17.6 19.1v1M15.1 17.6h1M19.1 17.6h1M15.9 15.9l.7.7M18.6 18.6l.7.7M19.3 15.9l-.7.7M16.6 18.6l-.7.7" stroke="#d4d4d4" stroke-width="1.5" stroke-linecap="round" stroke-linejoin="round" fill="none"/>
</svg>
