<?xml version="1.0" encoding="UTF-8"?>
<svg xmlns="http://www.w3.org/2000/svg" viewBox="0 0 24 24" width="24" height="24">
<mask id="kb"><rect x="0" y="0" width="24" height="24" fill="white"/><circle cx="17.6" cy="17.6" r="6.1" fill="black"/></mask>
<g mask="url(#kb)"><g transform="scale(0.82)"><rect x="3.5" y="5" width="17" height="16" rx="2" stroke="#d4d4d4" stroke-width="1.8" stroke-linecap="round" stroke-linejoin="round" fill="none"/>
  <line x1="3.5" y1="10" x2="20.5" y2="10" stroke="#d4d4d4" stroke-width="1.8" stroke-linecap="round" stroke-linejoin="round" fill="none"/>
  <line x1="8" y1="2.8" x2="8" y2="6.8" stroke="#d4d4d4" stroke-width="1.8" stroke-linecap="round" stroke-linejoin="round" fill="none"/>
  <line x1="16" y1="2.8" x2="16" y2="6.8" stroke="#d4d4d4" stroke-width="1.8" stroke-linecap="round" stroke-linejoin="round" fill="none"/>
  <line x1="7.5" y1="14" x2="9.5" y2="14" stroke="#d4d4d4" stroke-width="1.8" stroke-linecap="round" stroke-linejoin="round" fill="none"/>
  <line x1="11" y1="14" x2="13" y2="14" stroke="#d4d4d4" stroke-width="1.8" stroke-linecap="round" stroke-linejoin="round" fill="none"/>
  <line x1="14.5" y1="14" x2="16.5" y2="14" stroke="#d4d4d4" stroke-width="1.8" stroke-linecap="round" stroke-linejoin="round" fill="none"/>
  <line x1="7.5" y1="17.5" x2="9.5" y2="17.5" stroke="#d4d4d4" stroke-width="1.8" stroke-linecap="round" stroke-linejoin="round" fill="none"/>
  <line x1="11" y1="17.5" x2="13" y2="17.5" stroke="#d4d4d4" stroke-width="1.8" stroke-linecap="round" stroke-linejoin="round" fill="none"/></g></g>
<circle cx="17.6" cy="17.6" r="4.5" stroke="#d4d4d4" stroke-width="1.5" stroke-linecap="round" stroke-linejoin="round" fill="none"/>
<path d="M15.1 17.6s1-1.7 2.5-1.7 2.5 1.7 2.5 1.7-1 1.7-2.5 1.7-2.5-1.7-2.5-1.7z" stroke="#d4d4d4" stroke-width="1.5" stroke-linecap="round" stroke-linejoin="round" fill="none"/><circle cx="17.6" cy="17.6" r=".6" fill="#d4d4d4" stroke="none"/>
</svg>
