<?xml version="1.0" encoding="UTF-8"?>
<svg xmlns="http://www.w3.org/2000/svg" viewBox="0 0 512 512" width="24" height="24">
  <!-- Official Meta Quest infinity loop logo -->
  <path fill="#1C1E21" d="M380.7 256c0-68.9-55.8-124.7-124.7-124.7S131.3 187.1 131.3 256c0 45.8 24.7 85.8 61.5 107.5l-30.8 53.3c-58.9-34-98.5-97.8-98.5-170.2C63.5 140.8 150.3 54 256 54s192.5 86.8 192.5 192.5c0 72.4-39.6 136.2-98.5 170.2l-30.8-53.3c36.8-21.7 61.5-61.7 61.5-107.4z"/>
  <path fill="#1C1E21" d="M256 318.7c-34.6 0-62.7-28.1-62.7-62.7s28.1-62.7 62.7-62.7 62.7 28.1 62.7 62.7-28.1 62.7-62.7 62.7zm0-87.4c-13.6 0-24.7 11.1-24.7 24.7s11.1 24.7 24.7 24.7 24.7-11.1 24.7-24.7-11.1-24.7-24.7-24.7z"/>
  <circle fill="#1C1E21" cx="168" cy="256" r="38"/>
  <circle fill="#1C1E21" cx="344" cy="256" r="38"/>
</svg>
