<?xml version="1.0" encoding="UTF-8"?>
<svg xmlns="http://www.w3.org/2000/svg" viewBox="0 0 256 259" width="24" height="24">
  <path fill="#ffffff" d="M127.779 0C57.867 0 .234 55.879.234 124.715c0 4.542.245 9.038.727 13.472L63.16 162.37c5.09-3.471 11.23-5.502 17.854-5.502.601 0 1.197.019 1.788.055l26.705-38.612v-.542c0-23.29 18.99-42.28 42.28-42.28 23.29 0 42.28 18.99 42.28 42.28 0 23.291-18.99 42.281-42.28 42.281h-.985l-37.973 27.065c0 .506.034 1.017.034 1.533 0 17.467-14.2 31.667-31.667 31.667-15.39 0-28.24-11.017-31.07-25.586L2.667 175.09C17.56 222.524 61.753 256.5 114.028 258.956c.672.017 1.345.028 2.02.028h11.731c68.066 0 123.28-55.214 123.28-123.28V127.5C251.059 57.867 195.645 0 127.779 0zM80.396 206.907l-15.603-6.442c2.77 5.728 7.381 10.61 13.391 13.467 13.037 6.195 28.64.638 34.835-12.399 3.001-6.318 3.136-13.33.382-19.754-2.754-6.424-7.876-11.4-14.424-14.494-6.49-3.072-13.502-3.202-19.755-.638l16.121 6.658c9.612 3.97 14.175 15.003 10.205 24.615-3.97 9.612-15.003 14.175-24.615 10.205l-.537-.218zm91.734-89.869c0-15.527-12.644-28.171-28.171-28.171-15.527 0-28.171 12.644-28.171 28.171 0 15.527 12.644 28.171 28.171 28.171 15.527 0 28.171-12.644 28.171-28.171zm-49.296.049c0-11.677 9.489-21.166 21.166-21.166 11.677 0 21.166 9.489 21.166 21.166 0 11.677-9.489 21.166-21.166 21.166-11.677 0-21.166-9.489-21.166-21.166z"/>
</svg>
